<?xml version="1.0" encoding="UTF-8"?>
<svg xmlns="http://www.w3.org/2000/svg" xmlns:xlink="http://www.w3.org/1999/xlink" viewBox="0 0 64 64" width="64px" height="64px">
<g id="surface100438053">
<path style=" stroke:none;fill-rule:nonzero;fill:rgb(100%,77.64706%,0%);fill-opacity:1;" d="M 45.726562 0.0507812 C 45.394531 0.0664062 45.09375 0.242188 44.917969 0.523438 L 43.839844 2.207031 C 43.542969 2.671875 43.675781 3.289062 44.140625 3.589844 C 44.605469 3.886719 45.226562 3.753906 45.523438 3.285156 L 46.605469 1.601562 C 46.8125 1.289062 46.824219 0.886719 46.640625 0.558594 C 46.453125 0.230469 46.101562 0.0351562 45.726562 0.0507812 Z M 32.136719 2 C 23.863281 2 17.777344 6.695312 13.847656 11.964844 C 11.878906 14.597656 10.429688 17.386719 9.464844 19.863281 C 8.496094 22.34375 8 24.472656 8 26 C 8 28.546875 8.472656 30.5 8.960938 31.832031 C 8.988281 31.914062 9.015625 31.96875 9.046875 32.046875 C 8.15625 32.21875 7.402344 32.890625 6.90625 33.78125 C 6.324219 34.820312 6 36.210938 6 37.945312 C 6 40.621094 6.925781 43.277344 8.195312 45.328125 C 8.832031 46.355469 9.554688 47.230469 10.339844 47.882812 C 11.125 48.539062 11.996094 49 12.964844 49 C 13.105469 49 13.238281 48.980469 13.371094 48.964844 C 14.039062 51.460938 15.382812 53.265625 16.894531 54.515625 C 19.035156 56.285156 21.476562 57.097656 22.609375 57.691406 C 25.289062 59.097656 27.074219 60.949219 32 60.949219 C 36.925781 60.949219 38.710938 59.09375 41.386719 57.691406 C 42.523438 57.097656 44.964844 56.285156 47.105469 54.515625 C 48.617188 53.265625 49.960938 51.460938 50.625 48.964844 C 50.761719 48.980469 50.894531 49 51.035156 49 C 52.003906 49 52.875 48.539062 53.660156 47.882812 C 54.445312 47.230469 55.167969 46.355469 55.804688 45.328125 C 57.074219 43.277344 58 40.621094 58 37.945312 C 58 36.210938 57.675781 34.820312 57.09375 33.78125 C 56.617188 32.925781 55.902344 32.277344 55.054688 32.074219 C 55.066406 32.046875 55.078125 32.027344 55.085938 32.003906 C 55.554688 30.714844 56 28.757812 56 26 C 56 24.433594 55.484375 22.285156 54.5 19.800781 C 53.515625 17.316406 52.050781 14.535156 50.082031 11.914062 C 46.152344 6.664062 40.144531 2 32.132812 2 Z M 49.898438 3.238281 C 49.605469 3.226562 49.320312 3.351562 49.125 3.570312 L 47.769531 5.042969 C 47.511719 5.304688 47.417969 5.683594 47.523438 6.035156 C 47.628906 6.386719 47.917969 6.652344 48.273438 6.726562 C 48.632812 6.800781 49.003906 6.675781 49.242188 6.394531 L 50.597656 4.921875 C 50.867188 4.636719 50.945312 4.21875 50.796875 3.851562 C 50.644531 3.488281 50.292969 3.246094 49.898438 3.234375 Z M 32.136719 4 C 39.371094 4 44.792969 8.183594 48.484375 13.113281 C 50.328125 15.574219 51.71875 18.214844 52.640625 20.539062 C 53.5625 22.863281 54 24.914062 54 26 C 54 28.542969 53.59375 30.257812 53.207031 31.320312 C 53.066406 31.707031 52.945312 31.96875 52.839844 32.179688 C 51.929688 32.367188 50.933594 32.730469 49.972656 33.363281 C 50.117188 32.496094 50.308594 31.59375 50.503906 30.820312 C 50.507812 30.8125 50.511719 30.808594 50.519531 30.804688 C 50.519531 30.804688 52 28.953125 52 26.300781 C 52 25.769531 51.871094 25.558594 51.675781 25.101562 C 51.480469 24.640625 51.195312 24.082031 50.789062 23.457031 C 50.597656 23.152344 50.257812 22.976562 49.898438 22.996094 C 49.539062 23.011719 49.21875 23.21875 49.054688 23.539062 C 48.890625 23.859375 48.914062 24.242188 49.109375 24.542969 C 49.453125 25.078125 49.691406 25.542969 49.835938 25.882812 C 49.945312 26.136719 49.980469 26.402344 49.992188 26.398438 C 49.976562 27.363281 49.710938 28.140625 49.441406 28.699219 C 47.386719 27.136719 41.203125 23.066406 32.167969 23.011719 C 32.113281 23.003906 32.058594 23 32 23 C 31.953125 23 31.902344 23.003906 31.855469 23.011719 C 22.808594 23.058594 16.617188 27.136719 14.554688 28.699219 C 14.289062 28.136719 14.023438 27.359375 14.003906 26.386719 C 14.015625 26.378906 14.046875 26.175781 14.128906 25.96875 C 14.246094 25.683594 14.433594 25.285156 14.710938 24.824219 C 15.269531 23.90625 16.171875 22.726562 17.519531 21.570312 C 20.21875 19.257812 24.703125 17 32 17 C 35.023438 17 37.5625 17.445312 39.695312 18.125 C 40.039062 18.246094 40.421875 18.171875 40.691406 17.929688 C 40.964844 17.6875 41.082031 17.316406 41 16.960938 C 40.921875 16.605469 40.652344 16.320312 40.304688 16.222656 C 38.019531 15.492188 35.316406 15.03125 32.175781 15.015625 C 32.171875 15.011719 32.171875 15.011719 32.167969 15.011719 C 32.113281 15.003906 32.058594 15 32 15 C 31.941406 15 31.886719 15.003906 31.828125 15.015625 C 24.21875 15.050781 19.242188 17.460938 16.21875 20.054688 C 14.695312 21.359375 13.664062 22.699219 13 23.792969 C 12.671875 24.339844 12.433594 24.824219 12.273438 25.222656 C 12.113281 25.621094 12 25.816406 12 26.300781 C 12 28.953125 13.480469 30.804688 13.480469 30.804688 C 13.484375 30.808594 13.488281 30.8125 13.492188 30.816406 C 13.6875 31.589844 13.882812 32.496094 14.027344 33.363281 C 13.117188 32.761719 12.167969 32.40625 11.296875 32.214844 C 11.164062 31.953125 11.011719 31.617188 10.835938 31.148438 C 10.425781 30.015625 10 28.296875 10 26 C 10 24.945312 10.421875 22.910156 11.324219 20.59375 C 12.230469 18.273438 13.605469 15.632812 15.449219 13.164062 C 19.136719 8.222656 24.617188 4 32.132812 4 Z M 34.125 6 L 31.976562 8.5625 L 29.921875 6.054688 C 29.921875 6.054688 26.953125 12.453125 27 12.613281 C 27.046875 12.773438 28.78125 13.894531 28.78125 13.894531 L 30.152344 8.613281 L 32.070312 11.175781 L 33.804688 8.667969 L 35.21875 14 L 37 12.613281 Z M 53.375 7.019531 C 53.148438 7.023438 52.929688 7.105469 52.757812 7.25 L 51.199219 8.503906 C 50.917969 8.726562 50.78125 9.082031 50.835938 9.433594 C 50.890625 9.789062 51.128906 10.085938 51.460938 10.214844 C 51.796875 10.34375 52.171875 10.285156 52.449219 10.0625 L 54.007812 8.804688 C 54.347656 8.542969 54.480469 8.089844 54.335938 7.683594 C 54.191406 7.277344 53.804688 7.011719 53.371094 7.019531 Z M 56.355469 11.246094 C 56.167969 11.242188 55.980469 11.296875 55.816406 11.394531 L 54.101562 12.429688 C 53.796875 12.613281 53.613281 12.949219 53.621094 13.304688 C 53.625 13.664062 53.824219 13.988281 54.136719 14.160156 C 54.449219 14.335938 54.832031 14.328125 55.136719 14.140625 L 56.847656 13.109375 C 57.238281 12.882812 57.425781 12.425781 57.3125 11.992188 C 57.195312 11.554688 56.804688 11.25 56.355469 11.246094 Z M 58.65625 15.824219 C 58.535156 15.832031 58.414062 15.863281 58.300781 15.914062 L 56.464844 16.707031 C 55.957031 16.929688 55.726562 17.519531 55.945312 18.023438 C 56.164062 18.53125 56.753906 18.765625 57.261719 18.542969 L 59.09375 17.75 C 59.546875 17.5625 59.792969 17.078125 59.6875 16.601562 C 59.578125 16.128906 59.144531 15.800781 58.65625 15.824219 Z M 44.019531 17.910156 C 43.554688 17.894531 43.144531 18.199219 43.019531 18.648438 C 42.898438 19.09375 43.101562 19.566406 43.507812 19.789062 C 44.617188 20.417969 45.5625 21.097656 46.355469 21.765625 C 46.628906 22.007812 47.011719 22.085938 47.355469 21.964844 C 47.703125 21.84375 47.953125 21.542969 48.011719 21.183594 C 48.070312 20.824219 47.929688 20.460938 47.640625 20.234375 C 46.761719 19.496094 45.71875 18.742188 44.492188 18.046875 C 44.347656 17.960938 44.183594 17.914062 44.015625 17.910156 Z M 32 25 C 34.863281 25 37.433594 25.457031 39.667969 26.105469 C 36.570312 26.710938 35.109375 29.542969 35.109375 29.542969 C 34.859375 30.035156 35.054688 30.640625 35.546875 30.890625 C 36.035156 31.140625 36.640625 30.945312 36.890625 30.453125 C 36.890625 30.453125 38.148438 27.988281 40.84375 27.988281 C 42.601562 27.988281 44.378906 29.308594 44.378906 29.308594 C 44.640625 29.53125 44.996094 29.601562 45.320312 29.5 C 45.648438 29.398438 45.898438 29.136719 45.988281 28.808594 C 47.171875 29.496094 47.988281 30.082031 48.492188 30.472656 C 48.09375 31.992188 47.75 33.855469 47.75 35.238281 C 47.75 36.363281 48.097656 38.15625 48.425781 40.148438 C 48.753906 42.140625 49.074219 44.273438 49.074219 45.496094 C 49.074219 49.367188 47.617188 51.496094 45.832031 52.972656 C 44.042969 54.453125 41.90625 55.160156 40.457031 55.917969 C 37.480469 57.480469 36.453125 58.949219 32 58.949219 C 27.546875 58.949219 26.519531 57.484375 23.542969 55.917969 C 22.089844 55.160156 19.957031 54.453125 18.167969 52.972656 C 16.378906 51.496094 14.925781 49.367188 14.925781 45.496094 C 14.925781 44.273438 15.242188 42.140625 15.574219 40.148438 C 15.902344 38.15625 16.25 36.363281 16.25 35.238281 C 16.25 33.855469 15.90625 31.992188 15.507812 30.472656 C 16.011719 30.082031 16.828125 29.496094 18.007812 28.808594 C 18.101562 29.140625 18.351562 29.402344 18.679688 29.5 C 19.003906 29.601562 19.359375 29.53125 19.621094 29.308594 C 19.621094 29.308594 21.398438 27.988281 23.15625 27.988281 C 25.851562 27.988281 27.109375 30.457031 27.109375 30.457031 C 27.359375 30.945312 27.964844 31.140625 28.453125 30.890625 C 28.945312 30.640625 29.140625 30.035156 28.890625 29.546875 C 28.890625 29.546875 27.429688 26.710938 24.332031 26.109375 C 26.566406 25.457031 29.136719 25 32 25 Z M 25 33 C 23.894531 33 23 34.339844 23 36 C 23 37.566406 23.804688 38.839844 24.824219 38.976562 C 23.691406 40.21875 23 41.773438 23 43.5 C 23 43.714844 23.015625 43.925781 23.039062 44.136719 C 18.359375 42.960938 17.90625 41 17.90625 41 C 17.90625 41 17 41.707031 17 44.851562 C 17 48.550781 19.894531 48.742188 19.894531 48.742188 C 19.894531 48.742188 20.214844 52.328125 23.292969 52.328125 C 24.621094 52.328125 25.394531 51.761719 25.496094 51.710938 C 25.671875 51.894531 27.058594 54 29.167969 54 C 30.808594 54 31.964844 52.984375 31.964844 52.984375 C 31.964844 52.984375 33.246094 53.945312 34.996094 53.945312 C 36.980469 53.945312 38.507812 51.75 38.507812 51.75 C 38.507812 51.75 39.292969 52.324219 40.796875 52.324219 C 42.300781 52.324219 43.789062 51.238281 44.167969 48.699219 C 45.390625 48.699219 47 47.066406 47 44.960938 C 47 41.800781 46.125 41.039062 46.125 41.039062 C 45.101562 42.542969 43.402344 43.535156 40.960938 44.148438 C 40.984375 43.933594 41 43.71875 41 43.5 C 41 41.773438 40.308594 40.21875 39.171875 38.976562 C 40.195312 38.839844 41 37.570312 41 36.003906 C 41 34.34375 40.105469 33 39 33 C 37.894531 33 37 34.339844 37 36 C 37 36.511719 37.09375 36.988281 37.242188 37.414062 C 35.753906 36.523438 33.9375 36 32 36 C 30.0625 36 28.246094 36.523438 26.753906 37.414062 C 26.90625 36.988281 27 36.515625 27 36.003906 C 27 34.34375 26.105469 33 25 33 Z M 9.5 34 C 10.683594 34 12.6875 34.402344 14.167969 36.125 C 14.054688 37.039062 13.832031 38.40625 13.601562 39.824219 C 13.269531 41.828125 12.925781 43.953125 12.925781 45.5 C 12.925781 46.019531 12.953125 46.515625 13.003906 46.996094 C 12.992188 46.996094 12.976562 47 12.964844 47 C 12.6875 47 12.183594 46.816406 11.617188 46.347656 C 11.050781 45.875 10.441406 45.152344 9.898438 44.277344 C 8.808594 42.519531 8 40.148438 8 37.945312 C 8 36.46875 8.292969 35.390625 8.648438 34.757812 C 9.003906 34.125 9.324219 34 9.5 34 Z M 54.5 34 C 54.675781 34 54.996094 34.125 55.351562 34.757812 C 55.707031 35.390625 56 36.46875 56 37.945312 C 56 40.148438 55.191406 42.519531 54.105469 44.273438 C 53.558594 45.152344 52.949219 45.875 52.382812 46.34375 C 51.816406 46.816406 51.3125 47 51.035156 47 C 51.023438 47 51.007812 46.996094 50.996094 46.996094 C 51.046875 46.515625 51.074219 46.019531 51.074219 45.496094 C 51.074219 43.953125 50.730469 41.828125 50.398438 39.820312 C 50.164062 38.40625 49.945312 37.039062 49.832031 36.121094 C 51.3125 34.402344 53.316406 34 54.503906 34 Z M 32 38 C 35.980469 38 39 40.574219 39 43.5 C 39 46.425781 35.980469 49 32 49 C 28.019531 49 25 46.425781 25 43.5 C 25 40.574219 28.019531 38 32 38 Z M 32 38 "/>
</g>
</svg>
